# xmcd
#
# Track frame offsets:
#       150
#       10993
#       27300
#       44080
#       56030
#       68938
#       92939
#       116424
#       131448
#       144658
#
# Disc length: 2067 seconds
#
# Revision: 1
# Processed by: cddbd v1.5.2PL0 Copyright (c) Steve Scherf et al.
# Submitted via: FreeDbEdit v0.1
#
DISCID=9208110a
DTITLE=The O'Jays - Mastercuts Gold - The Best Of [CD2]
DYEAR=1900
DGENRE=Soul
TTITLE0=992 Arguments
TTITLE1=Shiftless, Shady, Jealous Kind of People
TTITLE2=Sunshine
TTITLE3=Let Me in Your World
TTITLE4=Time to Get Down
TTITLE5=When the World's at Peace
TTITLE6=Who Am I
TTITLE7=(They Call Me) Mr Lucky
TTITLE8=Branded Bad
TTITLE9=I've Got the Groove
EXTD=
EXTT0=
EXTT1=
EXTT2=
EXTT3=
EXTT4=
EXTT5=
EXTT6=
EXTT7=
EXTT8=
EXTT9=
PLAYORDER=
